<?xml version="1.0" encoding="UTF-8" standalone="no"?>
<svg
   xmlns:osb="http://www.openswatchbook.org/uri/2009/osb"
   xmlns:dc="http://purl.org/dc/elements/1.1/"
   xmlns:cc="http://creativecommons.org/ns#"
   xmlns:rdf="http://www.w3.org/1999/02/22-rdf-syntax-ns#"
   xmlns:svg="http://www.w3.org/2000/svg"
   xmlns="http://www.w3.org/2000/svg"
   xmlns:sodipodi="http://sodipodi.sourceforge.net/DTD/sodipodi-0.dtd"
   xmlns:inkscape="http://www.inkscape.org/namespaces/inkscape"
   width="655.48474mm"
   height="428.75729mm"
   viewBox="0 0 655.48474 428.75729"
   version="1.1"
   id="svg8"
   inkscape:version="1.0.1 (3bc2e813f5, 2020-09-07)"
   sodipodi:docname="dessin2.png.svg">
  <defs
     id="defs2">
    <linearGradient
       inkscape:collect="always"
       id="linearGradient1081"
       osb:paint="gradient">
      <stop
         style="stop-color:#000000;stop-opacity:1;"
         offset="0"
         id="stop1077" />
      <stop
         style="stop-color:#000000;stop-opacity:0;"
         offset="1"
         id="stop1079" />
    </linearGradient>
    <inkscape:perspective
       sodipodi:type="inkscape:persp3d"
       inkscape:vp_x="0 : 280.25729 : 1"
       inkscape:vp_y="0 : 999.99997 : 0"
       inkscape:vp_z="210.00001 : 280.25729 : 1"
       inkscape:persp3d-origin="105 : 230.75729 : 1"
       id="perspective18" />
    <clipPath
       clipPathUnits="userSpaceOnUse"
       id="clipPath3389">
      <path
         id="path3391"
         style="fill:#ff0000;fill-opacity:1;fill-rule:nonzero;stroke:none"
         d="M 803.41602,-191.67188 V 839.07227 c 0.82748,1.97074 1.52,4.18984 2.02148,6.69726 5.00995,25.0498 5.42119,28.79094 11.32617,52.38672 3.24465,12.96525 3.0536,6.81404 4.53906,22.09766 0.56769,5.84065 -0.198,11.88455 -0.63476,17.67187 -1.54878,6.89953 -0.7608,13.68505 -0.58203,20.62891 -0.008,6.13946 -0.11656,12.27846 -0.0977,18.41797 0.0288,7.04773 0.0161,14.0949 0.0117,21.14257 H 2468.582 V -191.67188 Z" />
    </clipPath>
  </defs>
  <sodipodi:namedview
     id="base"
     pagecolor="#ffffff"
     bordercolor="#666666"
     borderopacity="1.0"
     inkscape:pageopacity="0.0"
     inkscape:pageshadow="2"
     inkscape:zoom="0.35"
     inkscape:cx="1040.4602"
     inkscape:cy="838.90888"
     inkscape:document-units="mm"
     inkscape:current-layer="layer1"
     inkscape:document-rotation="0"
     showgrid="false"
     inkscape:window-width="1920"
     inkscape:window-height="1001"
     inkscape:window-x="-9"
     inkscape:window-y="-9"
     inkscape:window-maximized="1"
     showguides="true"
     inkscape:guide-bbox="true" />
  <metadata
     id="metadata5">
    <rdf:RDF>
      <cc:Work
         rdf:about="">
        <dc:format>image/svg+xml</dc:format>
        <dc:type
           rdf:resource="http://purl.org/dc/dcmitype/StillImage" />
        <dc:title></dc:title>
      </cc:Work>
    </rdf:RDF>
  </metadata>
  <g
     inkscape:label="Calque 1"
     inkscape:groupmode="layer"
     id="layer1"
     transform="translate(2.3390875,160.2619)">
    <path
       id="path3322"
       style="fill:#800000;fill-opacity:0.882051;fill-rule:evenodd;stroke:#000000;stroke-width:5.6646;stroke-opacity:1"
       transform="matrix(0.26458333,0,0,0.26458333,-108.01622,-61.364581)"
       d="m 1634.9316,-188.83984 a 829.75104,592.06186 0 0 0 -44.1601,0.8789 A 829.75104,592.06186 0 0 0 806.79688,424.74219 829.75104,592.06186 0 0 0 1651.082,995.18555 829.75104,592.06186 0 0 0 2465.75,403.2207 l -2.1914,-43.01172 a 829.75104,592.06186 0 0 0 -828.627,-549.04882 z"
       clip-path="url(#clipPath3389)" />
    <path
       id="path3304"
       style="fill:#aa0000;fill-opacity:0.882051;fill-rule:evenodd;stroke:#000000;stroke-width:0.436528;stroke-opacity:1"
       d="M 325.90044,-65.058412 A 210.82473,134.47355 0 0 0 115.07559,69.415033 210.82473,134.47355 0 0 0 325.90044,203.88847 210.82473,134.47355 0 0 0 536.72531,69.415033 210.82473,134.47355 0 0 0 325.90044,-65.058412 Z" />
    <path
       id="path3237"
       style="fill:#800000;fill-opacity:0.882051;fill-rule:evenodd;stroke:#000000;stroke-width:0.264583;stroke-opacity:1"
       d="M 324.42354,-22.810863 A 201.46131,113.77084 0 0 0 123.30506,90.959969 201.46131,113.77084 0 0 0 324.76665,204.7308 201.46131,113.77084 0 0 0 526.22775,90.959969 201.46131,113.77084 0 0 0 324.76665,-22.810863 a 201.46131,113.77084 0 0 0 -0.34311,0 z" />
    <ellipse
       style="fill:#aa0000;fill-opacity:0.882051;fill-rule:evenodd;stroke:#000000;stroke-width:0.264583;stroke-opacity:1"
       id="path3239"
       cx="328.1683"
       cy="111.37052"
       rx="153.45833"
       ry="95.627968" />
    <ellipse
       style="fill:#800000;fill-opacity:0.882051;fill-rule:evenodd;stroke:#000000;stroke-width:0.320441;stroke-opacity:1"
       id="path3235"
       cx="330.43616"
       cy="137.45087"
       rx="119.41254"
       ry="68.763733" />
    <ellipse
       style="fill:#aa0000;fill-opacity:0.882051;fill-rule:evenodd;stroke:#000000;stroke-width:0.383154;stroke-opacity:1"
       id="path3233"
       cx="328.92422"
       cy="159.3735"
       rx="64.952614"
       ry="46.809761" />
    <ellipse
       style="fill:#800000;fill-opacity:0.882051;fill-rule:evenodd;stroke:#000000;stroke-width:0.361457;stroke-opacity:1"
       id="path3231"
       cx="328.16824"
       cy="177.89435"
       rx="41.52895"
       ry="27.543825" />
    <ellipse
       style="fill:#aa0000;fill-opacity:0.882051;fill-rule:evenodd;stroke:#000000;stroke-width:0.264583;stroke-opacity:1"
       id="path3229"
       cx="330.81412"
       cy="197.54912"
       rx="22.300594"
       ry="9.4494047" />
    <ellipse
       style="fill:#800000;fill-opacity:0.882051;fill-rule:evenodd;stroke:#000000;stroke-width:0.0204293;stroke-opacity:1"
       id="path3298"
       cx="330.4361"
       cy="202.08482"
       rx="10.837719"
       ry="4.0341225" />
    <path
       id="path3312"
       style="fill:#000000;fill-opacity:0.882051;fill-rule:evenodd;stroke:#000000;stroke-width:0.264583;stroke-opacity:1"
       d="m 105.07723,-117.92857 -0.52296,5.85081 a 66.901787,46.869045 0 0 0 0.52296,-5.85081 z" />
    <path
       style="fill:#000000;fill-opacity:0.882051;fill-rule:evenodd;stroke:#000000;stroke-width:0.264583;stroke-opacity:1"
       id="path3318"
       sodipodi:type="arc"
       sodipodi:cx="236.61311"
       sodipodi:cy="-133.4256"
       sodipodi:rx="46.113098"
       sodipodi:ry="17.008928"
       sodipodi:start="0"
       sodipodi:end="0.12515756"
       sodipodi:open="true"
       sodipodi:arc-type="arc"
       d="m 282.72621,-133.4256 a 46.113098,17.008928 0 0 1 -0.36069,2.12324" />
  </g>
</svg>
