<?xml version="1.0" encoding="UTF-8" standalone="no"?>
<svg
   xmlns:dc="http://purl.org/dc/elements/1.1/"
   xmlns:cc="http://creativecommons.org/ns#"
   xmlns:rdf="http://www.w3.org/1999/02/22-rdf-syntax-ns#"
   xmlns:svg="http://www.w3.org/2000/svg"
   xmlns="http://www.w3.org/2000/svg"
   xmlns:sodipodi="http://sodipodi.sourceforge.net/DTD/sodipodi-0.dtd"
   xmlns:inkscape="http://www.inkscape.org/namespaces/inkscape"
   width="210mm"
   height="297mm"
   viewBox="0 0 210 297"
   version="1.1"
   id="svg2866"
   inkscape:version="1.0.1 (3bc2e813f5, 2020-09-07)"
   sodipodi:docname="Lit3.svg">
  <defs
     id="defs2860" />
  <sodipodi:namedview
     id="base"
     pagecolor="#ffffff"
     bordercolor="#666666"
     borderopacity="1.0"
     inkscape:pageopacity="0.0"
     inkscape:pageshadow="2"
     inkscape:zoom="0.76"
     inkscape:cx="451.48608"
     inkscape:cy="713.16447"
     inkscape:document-units="mm"
     inkscape:current-layer="layer1"
     inkscape:document-rotation="0"
     showgrid="false"
     inkscape:window-width="1920"
     inkscape:window-height="1001"
     inkscape:window-x="-9"
     inkscape:window-y="-9"
     inkscape:window-maximized="1" />
  <metadata
     id="metadata2863">
    <rdf:RDF>
      <cc:Work
         rdf:about="">
        <dc:format>image/svg+xml</dc:format>
        <dc:type
           rdf:resource="http://purl.org/dc/dcmitype/StillImage" />
        <dc:title></dc:title>
      </cc:Work>
    </rdf:RDF>
  </metadata>
  <g
     inkscape:label="Calque 1"
     inkscape:groupmode="layer"
     id="layer1">
    <rect
       style="fill:#d35f5f;stroke-width:0.264583"
       id="rect231"
       width="240.562"
       height="257.27249"
       x="-14.273574"
       y="48.042763"
       ry="1.0444078" />
    <path
       style="fill:#b3b3b3;stroke:#000000;stroke-width:0.264583px;stroke-linecap:butt;stroke-linejoin:miter;stroke-opacity:1"
       d="m 16.769366,119.62148 c 177.382624,-1.11796 177.382624,-1.11796 177.382624,-1.11796 l 1.49061,158.74999 H 23.10446 l -5.217136,0.37267 z"
       id="path2878" />
    <path
       style="fill:none;stroke:#000000;stroke-width:0.264583px;stroke-linecap:butt;stroke-linejoin:miter;stroke-opacity:1"
       d="m 113.28638,75.27582 c 0,0 0,0 0,0 z"
       id="path2888" />
    <path
       style="fill:none;stroke:#000000;stroke-width:0.264583px;stroke-linecap:butt;stroke-linejoin:miter;stroke-opacity:1"
       d="M 113.28638,75.27582 Z"
       id="path2890" />
    <path
       style="fill:none;stroke:#000000;stroke-width:0.264583px;stroke-linecap:butt;stroke-linejoin:miter;stroke-opacity:1"
       d="M 113.28638,75.27582 Z"
       id="path2892" />
    <path
       style="fill:#999999;stroke-width:13.18335111;stroke-miterlimit:4;stroke-dasharray:none"
       id="path2904"
       sodipodi:type="arc"
       sodipodi:cx="111.03724"
       sodipodi:cy="117.98626"
       sodipodi:rx="97.606758"
       sodipodi:ry="63.674385"
       sodipodi:start="3.0806796"
       sodipodi:end="0.013351467"
       sodipodi:arc-type="slice"
       d="M 13.611505,121.86246 A 97.606758,63.674385 0 0 1 59.209974,64.029594 97.606758,63.674385 0 0 1 158.87354,62.483166 97.606758,63.674385 0 0 1 208.6353,118.83638 l -97.59806,-0.85012 z"
       transform="matrix(0.99993879,0.01106381,-0.0505293,0.99872258,0,0)" />
    <rect
       style="fill:#999999;stroke-width:67.1301"
       id="rect2910"
       width="9.6889668"
       height="45.463615"
       x="7.080399"
       y="74.15786" />
    <rect
       style="fill:#999999;stroke-width:67.1301"
       id="rect2912"
       width="11.179583"
       height="46.581566"
       x="194.15199"
       y="75.275826" />
    <rect
       style="fill:#1a1a1a;stroke-width:94.3361"
       id="rect2927"
       width="2.2359157"
       height="175.14671"
       x="4.8444834"
       y="74.15786" />
    <rect
       style="fill:#1a1a1a;stroke-width:76.9479"
       id="rect2929"
       width="2.2359157"
       height="176.26468"
       x="205.33157"
       y="75.275826" />
    <rect
       style="fill:#1a1a1a;stroke-width:70.9024"
       id="rect2931"
       width="197.87852"
       height="2.2359085"
       x="7.4530506"
       y="119.62148" />
    <rect
       style="fill:#1a1a1a;stroke-width:53.7041"
       id="rect2933"
       width="5.9624414"
       height="2.608568"
       x="1.1179576"
       y="249.30457" />
    <rect
       style="fill:#1a1a1a;stroke-width:64.3145"
       id="rect2935"
       width="14.160798"
       height="1.8632627"
       x="3.3538733"
       y="294.76819" />
    <rect
       style="fill:#1a1a1a;stroke-width:62.8254"
       id="rect2937"
       width="2.2359157"
       height="47.326881"
       x="1.1179576"
       y="249.30457" />
    <rect
       style="fill:#1a1a1a;stroke-width:42.7872"
       id="rect2939"
       width="2.6085675"
       height="19.377932"
       x="17.514671"
       y="277.25354"
       ry="0" />
    <rect
       style="fill:#1a1a1a;stroke-width:17.1595"
       id="rect2941"
       width="2.2359145"
       height="48.291496"
       x="208.68546"
       y="249.45793" />
    <rect
       style="fill:#1a1a1a;stroke-width:13.2347"
       id="rect2943"
       width="12.13496"
       height="1.8632617"
       x="196.55049"
       y="295.88617" />
    <rect
       style="fill:#1a1a1a;stroke-width:17.6069"
       id="rect2945"
       width="2.2359154"
       height="21.986498"
       x="195.26996"
       y="274.6763" />
    <rect
       style="fill:#1a1a1a;stroke-width:52.6057"
       id="rect2951"
       width="177.75528"
       height="2.5772328"
       x="17.514671"
       y="274.6763" />
    <rect
       style="fill:#1a1a1a;stroke-width:10.9623"
       id="rect2957"
       width="2.2359147"
       height="2.6085684"
       x="207.56749"
       y="248.93193" />
    <rect
       style="fill:#d35f5f;stroke-width:66.1855"
       id="rect2966"
       width="48.072174"
       height="35.774658"
       x="35.029339"
       y="101.3615"
       ry="3.3022728" />
    <rect
       style="fill:#d35f5f;stroke-width:66.1855"
       id="rect2988"
       width="48.072174"
       height="35.774658"
       x="121.48474"
       y="101.73415"
       ry="3.3022728" />
    <rect
       style="fill:#999999;stroke-width:13.1087;stroke-miterlimit:4;stroke-dasharray:none;paint-order:fill markers stroke"
       id="rect3581"
       width="10.434271"
       height="175.14674"
       x="7.080399"
       y="119.62148"
       ry="1.474919" />
    <rect
       style="fill:#999999;stroke-width:11.5838;stroke-miterlimit:4;stroke-dasharray:none;paint-order:fill markers stroke"
       id="rect3583"
       width="11.017021"
       height="177.38263"
       x="194.15199"
       y="118.50352"
       ry="1.5193363" />
    <rect
       style="fill:#999999;stroke-width:22.9698;stroke-miterlimit:4;stroke-dasharray:none;paint-order:fill markers stroke"
       id="rect3589"
       width="4.0991778"
       height="43.227699"
       x="2.9812212"
       y="251.91313"
       ry="0.51461548" />
    <rect
       style="fill:#999999;stroke-width:21.4811;stroke-miterlimit:4;stroke-dasharray:none;paint-order:fill markers stroke"
       id="rect3593"
       width="4.8444839"
       height="45.090961"
       x="204.42371"
       y="250.79518"
       ry="0.8414644" />
    <path
       style="fill:#d35f5f;stroke-width:4.89844;stroke-miterlimit:4;stroke-dasharray:none;paint-order:fill markers stroke"
       id="path3599"
       sodipodi:type="arc"
       sodipodi:cx="39.112556"
       sodipodi:cy="101.13615"
       sodipodi:rx="4.0908036"
       sodipodi:ry="3.7018209"
       sodipodi:start="3.0806807"
       sodipodi:end="2.9792818"
       sodipodi:arc-type="arc"
       d="m 35.029339,101.3615 a 4.0908036,3.7018209 0 0 1 3.730775,-3.913402 4.0908036,3.7018209 0 0 1 4.417793,3.275752 4.0908036,3.7018209 0 0 1 -3.506819,4.07946 4.0908036,3.7018209 0 0 1 -4.595568,-3.06894"
       sodipodi:open="true" />
    <path
       style="fill:#d35f5f;stroke-width:4.89844;stroke-miterlimit:4;stroke-dasharray:none;paint-order:fill markers stroke"
       id="path3603"
       sodipodi:type="arc"
       sodipodi:cx="78.986382"
       sodipodi:cy="101.13615"
       sodipodi:rx="4.0908036"
       sodipodi:ry="3.7018209"
       sodipodi:start="3.0806807"
       sodipodi:end="2.9792818"
       sodipodi:arc-type="arc"
       d="m 74.903165,101.36149 a 4.0908036,3.7018209 0 0 1 3.730774,-3.9134 4.0908036,3.7018209 0 0 1 4.417793,3.27575 4.0908036,3.7018209 0 0 1 -3.506819,4.07946 4.0908036,3.7018209 0 0 1 -4.595568,-3.06894"
       sodipodi:open="true" />
    <path
       style="fill:#d35f5f;stroke-width:4.89844;stroke-miterlimit:4;stroke-dasharray:none;paint-order:fill markers stroke"
       id="path3605"
       sodipodi:type="arc"
       sodipodi:cx="165.81444"
       sodipodi:cy="101.5088"
       sodipodi:rx="4.0908036"
       sodipodi:ry="3.7018209"
       sodipodi:start="3.0806807"
       sodipodi:end="2.9792818"
       sodipodi:arc-type="arc"
       d="m 161.73122,101.73414 a 4.0908036,3.7018209 0 0 1 3.73078,-3.9134 4.0908036,3.7018209 0 0 1 4.41779,3.27575 4.0908036,3.7018209 0 0 1 -3.50682,4.07946 4.0908036,3.7018209 0 0 1 -4.59557,-3.06894"
       sodipodi:open="true" />
    <path
       style="fill:#d35f5f;stroke-width:4.89844;stroke-miterlimit:4;stroke-dasharray:none;paint-order:fill markers stroke"
       id="path3607"
       sodipodi:type="arc"
       sodipodi:cx="125.52177"
       sodipodi:cy="101.13594"
       sodipodi:rx="4.0908036"
       sodipodi:ry="3.7018209"
       sodipodi:start="3.0806807"
       sodipodi:end="2.9792818"
       sodipodi:arc-type="arc"
       d="m 121.43855,101.36129 a 4.0908036,3.7018209 0 0 1 3.73077,-3.913406 4.0908036,3.7018209 0 0 1 4.4178,3.275746 4.0908036,3.7018209 0 0 1 -3.50682,4.07947 4.0908036,3.7018209 0 0 1 -4.59557,-3.06895"
       sodipodi:open="true" />
    <path
       style="fill:#999999;stroke-width:13.1834;stroke-miterlimit:4;stroke-dasharray:none"
       id="path3609"
       sodipodi:type="arc"
       sodipodi:cx="113.69992"
       sodipodi:cy="271.83673"
       sodipodi:rx="97.606178"
       sodipodi:ry="63.674381"
       sodipodi:start="3.0806796"
       sodipodi:end="0.013351467"
       sodipodi:arc-type="slice"
       d="m 16.274765,275.71293 a 97.606178,63.674381 0 0 1 45.598199,-57.83286 97.606178,63.674381 0 0 1 99.662976,-1.54643 97.606178,63.674381 0 0 1 49.76146,56.35321 l -97.59748,-0.85012 z"
       transform="matrix(0.99993879,0.01106388,-0.050529,0.99872259,0,0)" />
    <rect
       style="fill:#d35f5f;stroke-width:0.264583"
       id="rect238"
       width="4.1776314"
       height="1.0444078"
       x="174.06799"
       y="53.612938"
       ry="0.52220392" />
  </g>
</svg>
